<?xml version="1.0" encoding="utf-8"?>
<!-- Generator: Adobe Illustrator 28.0.0, SVG Export Plug-In . SVG Version: 6.00 Build 0)  -->
<svg version="1.1" id="Layer_1" xmlns="http://www.w3.org/2000/svg" xmlns:xlink="http://www.w3.org/1999/xlink" x="0px" y="0px"
	 viewBox="0 0 324.84 111.93" style="enable-background:new 0 0 324.84 111.93;" xml:space="preserve">
<style type="text/css">
	.st0{fill:#19191C;}
</style>
<g>
	<g>
		<g>
			<path class="st0" d="M63.62,55.74c-1.12,0.97-8.64,14.97-27.14,48.34c19.6,8.92,42.31,6.25,57.13-8.56
				c0.18-0.2,0.36-0.4,0.54-0.58C89.19,86.6,71.11,56.19,70.32,55.5C69.42,54.72,67.1,51.29,63.62,55.74z"/>
			<path class="st0" d="M74.76,37.45c-0.32,1.4-0.54,6.55,2.49,12.07c2.11,3.99,15.22,28.97,21.18,40.3
				c12.58-17.5,11.65-42.36-2.09-61.53c-5.28,0.54-13.89,1.44-14.49,1.56C78.15,30.46,75.4,30.34,74.76,37.45z"/>
			<path class="st0" d="M18.99,91.32c2.71,2.72,5.61,5.13,8.65,7.2c28.14-51.56,29.96-48.79,29.8-60.94
				c-1.16-13.8-4.41-10.96-35.41-26c-2.4,1.61-4.68,3.47-6.78,5.58C-4.21,36.61-2.53,69.81,18.99,91.32z"/>
			<path class="st0" d="M92.45,24.23c-0.97-1.13-1.98-2.23-3.05-3.32C71.73,3.24,46.19-1.03,26.85,8.76
				C33.52,12.16,63.2,26.27,92.45,24.23z"/>
		</g>
	</g>
	<g>
		<g>
			<path class="st0" d="M134.7,22.65h15.25c5.52,0,8.34,3.52,8.34,7.39c0,3.65-2.26,6.08-5,6.65c3.09,0.48,5.56,3.48,5.56,7.13
				c0,4.35-2.91,7.82-8.43,7.82H134.7V22.65z M148.6,34.3c2.09,0,3.39-1.35,3.39-3.22c0-1.78-1.3-3.17-3.39-3.17h-7.74v6.39H148.6z
				 M148.82,46.38c2.35,0,3.74-1.35,3.74-3.43c0-1.83-1.3-3.39-3.74-3.39h-7.95v6.82H148.82z"/>
			<path class="st0" d="M175.97,49.46c-1.43,1.69-3.91,2.69-6.65,2.69c-3.35,0-7.3-2.26-7.3-6.95c0-4.91,3.96-6.69,7.3-6.69
				c2.78,0,5.26,0.87,6.65,2.56v-2.91c0-2.13-1.83-3.52-4.61-3.52c-2.26,0-4.35,0.82-6.13,2.48l-2.08-3.69
				c2.56-2.26,5.86-3.3,9.17-3.3c4.78,0,9.17,1.91,9.17,7.95v13.56h-5.52V49.46z M175.97,43.99c-0.91-1.22-2.65-1.82-4.43-1.82
				c-2.17,0-3.96,1.13-3.96,3.17c0,1.96,1.78,3.08,3.96,3.08c1.78,0,3.52-0.61,4.43-1.83V43.99z"/>
			<path class="st0" d="M194.99,43.55l-2.52,2.69v5.39h-5.52V22.65h5.52v17.34l7.95-9.34h6.78l-8.3,9.52l8.56,11.47h-6.91
				L194.99,43.55z"/>
			<path class="st0" d="M218.22,43.55l-2.52,2.69v5.39h-5.52V22.65h5.52v17.34l7.95-9.34h6.78l-8.3,9.52l8.56,11.47h-6.91
				L218.22,43.55z"/>
			<path class="st0" d="M242.02,30.13c6.26,0,10.52,4.69,10.52,11.56v1.22h-15.6c0.35,2.65,2.48,4.87,6.04,4.87
				c1.95,0,4.26-0.78,5.6-2.09l2.43,3.56c-2.09,1.91-5.39,2.91-8.65,2.91c-6.39,0-11.21-4.3-11.21-11.04
				C231.16,35.04,235.64,30.13,242.02,30.13z M236.86,39.16h10.34c-0.13-2-1.52-4.65-5.17-4.65
				C238.59,34.51,237.12,37.08,236.86,39.16z"/>
			<path class="st0" d="M256.53,30.65h5.52v2.87c1.48-1.87,4.09-3.35,6.69-3.35v5.39c-0.39-0.09-0.91-0.17-1.52-0.17
				c-1.83,0-4.26,1.04-5.17,2.39v13.86h-5.52V30.65z"/>
			<path class="st0" d="M134.7,60.66h20.51v5.3h-14.34v6.3h14.03v5.3h-14.03v6.74h14.34v5.34H134.7V60.66z"/>
			<path class="st0" d="M180.87,81.56l-2.52,2.69v5.39h-5.52V60.66h5.52V78l7.95-9.34h6.78l-8.3,9.52l8.56,11.47h-6.91L180.87,81.56
				z"/>
			<path class="st0" d="M210.28,76.87c0-2.91-1.52-3.82-3.91-3.82c-2.13,0-3.82,1.22-4.78,2.48v14.12h-5.52V60.66h5.52v10.73
				c1.35-1.61,3.96-3.26,7.39-3.26c4.6,0,6.82,2.52,6.82,6.61v14.9h-5.52V76.87z"/>
			<path class="st0" d="M235.43,86.99c-1.43,1.61-3.96,3.17-7.39,3.17c-4.61,0-6.78-2.52-6.78-6.6v-14.9h5.52v12.73
				c0,2.91,1.52,3.87,3.87,3.87c2.13,0,3.82-1.17,4.78-2.39V68.65h5.52v20.99h-5.52V86.99z"/>
			<path class="st0" d="M245.85,62.27c0-1.83,1.52-3.3,3.3-3.3c1.83,0,3.3,1.48,3.3,3.3s-1.48,3.3-3.3,3.3
				C247.36,65.57,245.85,64.09,245.85,62.27z M246.41,68.65h5.52v20.99h-5.52V68.65z"/>
			<path class="st0" d="M256.48,85.51l9.47-12.04h-9.47v-4.82h16.95v4l-9.6,12.17h9.78v4.82h-17.12V85.51z"/>
			<path class="st0" d="M287.72,68.13c6.26,0,10.52,4.69,10.52,11.56v1.22h-15.6c0.35,2.65,2.48,4.87,6.04,4.87
				c1.95,0,4.26-0.78,5.6-2.09l2.43,3.56c-2.09,1.91-5.39,2.91-8.65,2.91c-6.39,0-11.21-4.3-11.21-11.04
				C276.85,73.04,281.33,68.13,287.72,68.13z M282.55,77.17h10.34c-0.13-2-1.52-4.65-5.17-4.65
				C284.29,72.52,282.81,75.08,282.55,77.17z"/>
			<path class="st0" d="M316.39,76.95c0-2.91-1.52-3.91-3.87-3.91c-2.17,0-3.87,1.22-4.78,2.48v14.12h-5.52V68.65h5.52v2.74
				c1.35-1.61,3.91-3.26,7.34-3.26c4.61,0,6.82,2.61,6.82,6.69v14.82h-5.52V76.95z"/>
		</g>
		<polygon class="st0" points="165.41,84.3 165.41,60.66 159.89,60.66 159.89,84.3 159.89,89.64 165.41,89.64 168.15,89.64 
			168.15,84.3 		"/>
	</g>
</g>
</svg>
